<?xml version="1.0" encoding="utf-8"?>
<svg width="20" height="20" viewBox="0 0 20 20" fill="none" xmlns="http://www.w3.org/2000/svg">
  <path fill-rule="evenodd" clip-rule="evenodd" d="M -0.087 10.022 C -0.087 4.601 4.512 0.022 9.957 0.022 C 15.401 0.022 20 4.601 20 10.022 C 20 13.212 15.983 18.022 15.983 18.022 L 14.695 18.923 C 13.02 20.168 12.153 20.022 9.957 20.022 C 7.76 20.022 5.708 19.267 4.033 18.022 L 3.931 18.022 L 3.931 17.946 C 1.512 16.1 -0.087 13.211 -0.087 10.022 Z M 4.322 15.663 C 8.061 18.661 11.988 18.848 15.235 15.592 C 16.708 14.133 17.991 12.198 17.991 10.022 C 17.991 5.685 14.312 2.022 9.957 2.022 C 5.601 2.022 1.922 5.685 1.922 10.022 C 1.922 12.198 2.849 14.204 4.322 15.663 Z" fill="#9B9B9B" style=""/>
  <text style="white-space: pre; fill: rgb(51, 51, 51); font-family: Arial, sans-serif; font-size: 28px;" x="8.333" y="6.84" transform="matrix(0.673671, 0, 0, 0.48577, -0.785105, 10.946523)">$</text>
</svg>