<?xml version="1.0" encoding="utf-8"?>
<svg width="22" height="19" viewBox="0 0 22 19" fill="none" xmlns="http://www.w3.org/2000/svg">
  <path d="M 15.1 0 C 16.729 0 18.098 0.549 19.205 1.648 C 20.313 2.747 20.867 4.088 20.867 5.671 C 20.867 6.446 20.704 7.23 20.378 8.022 C 20.052 8.813 19.694 9.516 19.303 10.13 C 18.912 10.744 18.252 11.536 17.324 12.505 C 16.395 13.475 15.613 14.258 14.978 14.856 C 14.343 15.454 13.325 16.366 11.924 17.594 L 10.409 18.952 L 8.894 17.643 C 7.526 16.383 6.516 15.454 5.864 14.856 C 5.213 14.258 4.423 13.475 3.494 12.505 C 2.566 11.536 1.906 10.744 1.515 10.13 C 1.124 9.516 0.774 8.813 0.464 8.022 C 0.155 7.23 0 6.446 0 5.671 C 0 4.088 0.554 2.747 1.662 1.648 C 2.769 0.549 4.121 0 5.718 0 C 7.607 0 9.171 0.727 10.409 2.181 C 11.647 0.727 13.211 0 15.1 0 Z" fill="#ff0000"/>
</svg>